PathFileType	4	(X/Y/Z)	C:/Users/beibeiliu/ov580/test_trc\sequence.14_training_dense_right.trc
DataRate	CameraRate	NumFrames	NumMarkers	Units	OrigDataRate	OrigDataStartFrame	OrigNumFrames
120	120	22	19	mm	120	27	53
Frame#	Time	ThumbCMC			ThumbMCP			ThumbIP			ThumbTip			IndexMCP			IndexPIP			IndexTip			MiddleMCP			MiddlePIP			MiddleTip			RingMCP			RingPIP			RingTip			PinkyMCP			PinkyPIP			PinkyTip			BackHand1			BackHand2			BackHand3	
		X0	Y0	Z0	X1	Y1	Z1	X2	Y2	Z2	X3	Y3	Z3	X4	Y4	Z4	X5	Y5	Z5	X6	Y6	Z6	X7	Y7	Z7	X8	Y8	Z8	X9	Y9	Z9	X10	Y10	Z10	X11	Y11	Z11	X12	Y12	Z12	X13	Y13	Z13	X14	Y14	Z14	X15	Y15	Z15	X16	Y16	Z16	X17	Y17	Z17	X18	Y18	Z18	
26	0.216667	176.848	-7.91414	122.729	156.251	6.23807	97.9365	143.514	9.60727	72.9278	126.577	-5.55014	55.1916	190.925	-45.4316	66.9221	188.021	-48.4294	41.0728	187.89	-47.3798	13.6205	169.972	-61.8188	64.8218	162.728	-65.4063	34.7112	156.364	-67.4127	9.49251	149.64	-61.6214	62.9732	142.401	-57.7055	37.8317	132.074	-52.2215	13.7033	124.189	-55.1878	74.7278	121.263	-31.6389	58.5349	123.173	-3.80214	67.6071	154.344	-61.9398	118.711	152.276	-57.7728	148.456	183.063	-48.2515	132.826	
27	0.225	190.171	-12.9622	128.035	170.689	0.179672	96.988	158.214	-4.39224	66.7684	143.855	-16.3841	52.3856	206.636	-61.7479	74.1203	211.424	-64.4438	51.1871	214.816	-69.8842	24.8366	186.486	-74.9344	70.95	183.689	-81.493	44.0475	185.575	-85.3277	14.1952	162.635	-74.6991	73.3986	162.652	-73.4747	44.8655	154.496	-71.606	17.8168	141.154	-66.3865	78.1273	133.472	-45.4623	58.1868	144.99	-13.9812	65.5114	163.318	-70.7401	123.243	162.59	-61.3734	156.347	191.823	-55.9257	136.068	
28	0.233333	200.036	-19.6497	128.551	183.533	-11.6888	93.9996	174.673	-15.6726	70.4424	162.447	-31.106	51.8484	229.027	-70.4027	83.5935	234.45	-74.8007	63.0896	239.736	-84.1814	36.3162	207.321	-86.3522	80.7915	210.333	-93.3815	57.1035	212.288	-102.875	28.0572	184.291	-86.266	77.7271	182.821	-89.7501	53.0189	182.007	-88.4859	27.5146	161.132	-77.1299	82.3369	157.785	-58.3312	59.7111	157.789	-28.1193	64.0485	178.666	-75.6546	132.529	170.524	-64.284	160.728	206.012	-58.0663	143.306	
29	0.241667	207.247	-18.2388	133.337	192.014	-13.8539	98.0843	187.22	-20.9219	67.7755	179.513	-44.1914	53.9043	245.581	-67.6669	89.6869	254.179	-71.4299	71.1411	261.021	-80.071	49.3024	229.978	-87.5857	88.8998	235.456	-96.1431	64.1536	244.962	-103.684	36.9312	206.429	-89.376	86.8726	210.602	-94.1443	58.7023	212.763	-94.2392	32.4865	183.868	-84.4078	88.8869	177.907	-67.9969	62.5932	171.375	-39.307	63.0184	196.165	-77.6171	136.536	183.997	-66.4478	164.444	218.056	-50.9164	151.816	
30	0.25	206.332	-7.46849	129.415	191.617	-9.84738	94.5001	188.299	-19.935	69.8136	188.084	-40.8748	55.8322	258.752	-39.5052	93.1811	266.88	-47.2069	69.7918	276.79	-52.9551	51.1349	249.398	-66.5634	90.9497	259.994	-74.9884	66.1679	268.436	-82.4537	41.0039	231.153	-78.1451	87.4984	237.066	-80.4181	62.0467	236.123	-83.7011	32.2253	207.48	-79.4031	89.7642	199.514	-67.6829	64.6419	183.2	-44.4716	60.7311	212.57	-68.0993	138.254	199.781	-58.6455	162.069	225.383	-36.3912	151.968	
31	0.258333	192.998	1.13947	126.976	180.379	-8.31461	89.667	180.617	-19.367	66.6055	187.447	-41.4535	51.0721	252.021	-14.1872	90.144	264.68	-12.9121	64.6526	275.444	-18.4022	43.5452	255.994	-39.8704	86.4536	266.023	-45.0782	63.5172	279.596	-46.9633	36.4672	242.785	-55.4907	84.0539	247.49	-60.4889	58.428	249.035	-59.3854	33.9861	220.064	-69.695	88.317	208.344	-62.2712	63.7622	184.765	-42.8476	59.957	223.468	-50.3126	134.953	209.02	-45.0106	162.988	222.444	-20.6008	146.997	
32	0.266667	174.46	6.7249	124.512	164.601	-8.42185	85.9723	168.656	-21.6027	60.8028	182.201	-42.8939	50.8129	235.211	6.66116	83.3645	245.743	13.0202	55.1453	254.618	10.3525	36.4735	244.287	-16.9132	82.1775	257.319	-16.88	55.545	269.82	-23.2637	30.9849	238.672	-37.9038	80.5149	244.346	-40.5059	54.5214	244.754	-45.7394	25.8991	222.795	-55.8572	86.2465	206.407	-59.5837	60.5206	176.508	-44.6626	61.1303	223.215	-38.0866	132.594	208.317	-38.3522	156.636	214.439	-6.92899	138.811	
33	0.275	159.066	1.01204	119.869	146.067	-15.6556	87.9847	151.977	-30.9935	63.1207	171.637	-49.4432	49.1277	213.981	16.0085	70.6825	221.168	17.4789	48.209	231.375	13.8821	25.8469	228.019	-11.4299	74.3645	239.001	-8.66764	47.9458	249.247	-9.61598	23.8779	228.402	-32.0748	71.3847	232.724	-36.3092	48.2597	233.082	-43.0665	24.0643	216.353	-52.099	79.91	198.48	-59.8188	58.4773	163.738	-55.6351	61.1076	216.452	-27.4029	127.416	203.47	-27.3485	150.954	196.36	2.87078	134.341	
34	0.283333	144.387	-7.42052	115.785	132.084	-29.6713	86.3527	139.93	-45.3166	69.0811	158.877	-62.8583	52.908	191.224	5.57451	62.879	194.212	11.1502	34.434	202.364	7.58779	15.6843	207.504	-7.99482	61.6137	215.591	-11.7607	39.8295	226.758	-15.2218	11.7066	211.237	-31.0464	67.9125	215.804	-39.5457	45.9188	216.049	-45.9314	16.0606	204.659	-53.9788	78.8361	186.067	-68.1389	61.5332	155.595	-66.9849	66.1425	202.832	-26.0399	123.217	191.849	-22.5268	149.724	181.592	2.60942	124.824	
35	0.291667	128.949	-16.3951	118.672	120.555	-44.5234	89.1845	126.206	-62.1483	70.1538	149.648	-74.6126	62.956	167.672	0.124647	54.202	172.185	-5.04335	32.4442	175.854	-5.77873	8.54013	191.022	-15.5331	55.9914	197.749	-20.3792	32.7304	207.186	-27.471	7.95161	198.426	-38.1803	67.0512	200.038	-45.7477	39.6058	203.276	-59.6749	15.296	194.241	-58.1706	76.4932	179.342	-74.7324	65.1606	148.142	-81.0975	73.5991	190.344	-20.3926	117.635	181.75	-18.7274	148.297	167.534	-0.671152	121.441	
36	0.3	112.874	-29.621	118.174	105.3	-60.2857	101.377	115.481	-81.4685	77.7177	136.912	-92.0969	71.3888	146.126	-20.1751	53.9595	144.164	-23.7402	29.4785	151.028	-32.4501	8.0667	165.498	-28.7432	53.3938	173.098	-37.9364	31.8872	179.102	-45.327	2.52428	178.471	-48.0649	66.2266	181.353	-62.8072	40.707	181.105	-77.995	18.9249	182.571	-67.7464	83.9832	163.682	-92.9465	72.5769	139.685	-98.0178	80.9483	172.636	-27.0365	114.792	167.714	-19.108	139.739	146.498	-7.53725	120.42	
37	0.308333	102.067	-33.8068	127.683	89.2302	-66.8903	111.672	97.0541	-91.912	90.4898	119.195	-104.246	83.8822	127.923	-36.9102	57.6861	128.244	-45.4798	34.2669	127.005	-52.9573	9.91003	150.302	-47.0712	55.985	155.181	-60.2407	34.1455	158.552	-73.1181	7.95671	161.813	-62.8921	68.8189	159.597	-82.1364	45.1502	154.131	-98.6112	28.256	165.896	-83.1162	87.872	144.826	-105.405	84.067	118.111	-104.401	98.0787	163.087	-34.5302	115.419	162.316	-25.3357	139.29	136.671	-15.8947	114.413	
38	0.316667	100.949	-22.6335	128.988	79.4846	-52.5172	116.674	76.2953	-78.6854	98.2379	89.2405	-98.1766	92.1194	121.359	-41.4029	55.7003	115.816	-49.4582	33.747	113.808	-62.3574	12.6067	140.066	-59.277	60.1918	135.426	-70.5228	37.287	132.866	-85.4925	10.9429	142.455	-75.7929	68.6224	137.062	-93.6013	53.2234	120.394	-109.951	36.6976	142.801	-91.3019	93.4491	119.183	-108.092	92.6823	94.1228	-97.4489	107.234	156.208	-45.9406	115.976	158.94	-32.3313	137.88	141.007	-18.0086	114.31	
39	0.325	110.84	-8.8905	126.315	82.6071	-34.6148	112.934	72.5302	-56.3217	99.6489	73.3978	-78.0704	93.941	126.236	-34.8849	60.2222	118.834	-42.182	35.8069	111.823	-53.7741	13.4408	135.552	-58.7293	57.3983	128.036	-73.4237	35.6789	119.496	-87.6634	12.8184	131.226	-81.8123	70.9967	117.503	-92.6413	54.0874	97.9015	-104.072	37.6872	123.608	-89.1185	93.393	93.6671	-95.3861	94.2945	75.5133	-75.485	110.905	156.36	-57.3608	116.889	163.334	-43.8967	143.176	152.132	-21.347	113.403	
40	0.333333	128.783	-1.1762	122.199	94.1314	-12.3984	112.976	75.0079	-28.7408	98.5867	71.0687	-52.8757	90.6468	137.127	-31.2848	58.346	126.368	-38.9477	35.8343	115.632	-47.4199	11.1376	136.288	-59.8602	61.362	125.836	-65.6425	39.4827	113.775	-77.4382	13.4044	124.176	-76.0755	76.5176	107.632	-82.4249	55.6565	89.2086	-90.0086	39.2698	110.751	-83.3997	95.7831	81.3938	-75.1376	94.2413	68.5266	-51.8182	108.851	153.589	-59.0057	116.878	165.504	-50.4413	143.085	161.253	-28.5672	117.049	
41	0.341667	144.357	0.777355	124.46	108.112	4.00053	113.642	86.9264	-10.8225	96.666	72.8902	-31.4129	87.0892	145.779	-27.3627	57.9692	133.827	-31.1202	34.794	124.366	-34.3957	13.9472	136.33	-53.9512	58.101	123.412	-61.139	38.5719	109.715	-68.3849	13.224	118.265	-67.626	72.9273	104.704	-68.203	56.0861	81.4278	-70.7371	35.6868	105.507	-70.9973	96.7358	80.0591	-51.5256	90.1733	70.3305	-30.1679	104.762	152.78	-61.3265	120.081	161.12	-54.3279	142.893	169.503	-29.844	117.939	
42	0.35	156.654	2.05859	124.629	123.727	13.102	113.115	99.1725	6.86751	93.2753	81.8437	-10.2028	81.634	150.844	-26.1616	56.2922	142.123	-24.8546	36.7108	132.427	-26.0852	14.1537	136.886	-48.7359	58.3255	126.356	-50.496	40.12	114.431	-53.1804	13.166	120.809	-52.9946	71.8505	103.559	-53.233	52.2632	88.8509	-48.7431	34.2731	103.389	-57.7893	93.5673	82.0972	-38.6287	86.3919	77.9067	-8.52738	98.9253	151.126	-58.2984	119.615	159.61	-55.6296	143.265	172.866	-32.7834	116.334	
43	0.358333	171.166	3.84882	125.495	140.532	16.6253	110.731	118.784	16.2129	91.7231	101.288	4.3695	79.6041	164.544	-25.8852	61.0429	158.938	-20.7923	31.445	150.746	-21.408	12.6075	148.04	-42.1268	61.3741	139.608	-41.254	34.8419	128.902	-42.5178	11.124	128.67	-47.0686	70.2756	112.642	-40.6677	46.5994	96.7966	-36.4646	29.7663	108.953	-47.2458	86.7025	95.5287	-23.4586	78.028	92.9076	4.44711	90.7184	153.616	-55.9277	119.009	161.784	-56.1316	143.066	178.431	-37.9478	122.55	
44	0.366667	181.983	-4.09945	124.988	158.752	15.4816	109.495	139.202	18.4992	88.3721	120.212	8.9467	72.9761	183.609	-30.2064	56.9369	180.379	-25.4795	35.5499	169.842	-27.7161	11.1713	163.571	-43.9048	57.213	153.936	-44.2576	32.9683	147.912	-43.9181	6.99601	140.535	-45.2344	63.8429	130.278	-38.2559	41.292	117.409	-31.0833	22.871	125.987	-41.5948	82.2647	111.598	-17.4598	71.5011	116.692	8.64855	81.4254	159.628	-59.6122	114.404	165.478	-57.1282	147.106	189.639	-42.2759	124.467	
45	0.375	198.829	-14.6599	128.855	178.121	6.26511	105.329	162.529	10.948	81.2678	143.177	-0.114303	64.4823	204.634	-46.8477	67.1728	207.411	-41.7487	40.4801	202.807	-44.006	13.7707	187.16	-58.5085	61.9603	183.337	-58.3833	38.2695	176.076	-61.2115	9.25361	164.673	-57.117	68.9168	155.661	-51.3447	40.791	147.723	-44.287	18.3498	142.288	-52.3667	78.0169	137.472	-30.0583	65.7242	137.644	1.53941	77.9753	174.475	-66.2118	120.05	172.961	-67.4898	151.668	204.998	-53.5371	127.695	
46	0.383333	222.393	-28.9786	134.353	204.379	-11.6677	107.64	190.566	-7.97385	78.3492	175.891	-18.42	66.0208	236.978	-67.9399	77.1247	238.108	-69.0048	51.0798	238.073	-72.2073	23.0372	214.225	-81.8074	72.1449	215.772	-84.925	44.94	213.118	-88.397	17.3829	192.698	-77.9298	74.0259	188.668	-74.0459	44.7315	184.719	-66.9883	19.8202	167.81	-69.3362	77.8866	166.066	-41.0558	64.9101	175.321	-17.5362	76.1203	188.441	-82.9397	122.967	187.407	-80.2673	153.011	219.357	-72.1182	138.614	
47	0.391667	240.959	-41.5664	145.22	229.745	-22.0154	110.205	221.151	-20.6934	82.7523	205.828	-37.4369	66.631	267.01	-83.5101	93.6173	271.225	-88.5744	65.4506	278.929	-89.9973	43.2776	242.956	-99.8405	83.3499	250.543	-105.318	56.1887	256.027	-110.559	29.5894	221.222	-94.5178	83.1113	220.427	-94.0755	51.5194	223.131	-88.0179	28.694	199.165	-82.5744	83.6405	203.112	-59.6786	67.6466	208.952	-32.1603	77.6932	210.66	-94.5262	134.93	206.926	-85.9782	164.264	239.555	-80.5747	153.891	
